<?xml version="1.0" encoding="utf-8"?>
<!-- Generator: Adobe Illustrator 23.0.0, SVG Export Plug-In . SVG Version: 6.00 Build 0)  -->
<svg version="1.1" id="Capa_1" xmlns="http://www.w3.org/2000/svg" xmlns:xlink="http://www.w3.org/1999/xlink" x="0px" y="0px"
	 viewBox="0 0 460.3 83" style="enable-background:new 0 0 460.3 83;" xml:space="preserve">
<style type="text/css">
	.st0{fill:#F9B24D;}
</style>
<path class="st0" d="M81.2,0C70.8,0,65.3,8.3,65.3,16.1v21.7c0,21.6-17.7,22.7-21.2,22.7H32.3l19.2-28.1H34.6L0,83h16.9l6.4-9.4H44
	c3.7,0,13.3-0.7,21.7-7.2c5.8-4.4,12.6-13,12.6-28.7V16.1c0-1.4,0.5-3,2.8-3h4.4V0H81.2z"/>
<path class="st0" d="M145.5,52.3c0-0.7-0.2-1.3-0.6-1.8c-0.4-0.4-1.2-0.8-2.3-1.2L122.2,43c-3-0.9-5.2-2.2-6.7-3.9s-2.2-4.1-2.2-7.2
	v-4.5c0-4.1,1.1-7.2,3.2-9.4c2.2-2.2,5.3-3.2,9.4-3.2h20.4c4.1,0,7.2,1.1,9.4,3.2s3.2,5.3,3.2,9.4v4.5c0,1.5-0.7,2.2-2.2,2.2h-9.6
	c-1.5,0-2.2-0.7-2.2-2.2V30c0-2-1-3-3-3h-11.7c-2,0-3,1-3,3v0.4c0,0.7,0.2,1.3,0.6,1.8c0.4,0.4,1.2,0.8,2.3,1.2l20.4,6.3
	c3,0.9,5.2,2.2,6.7,3.9s2.2,4.1,2.2,7.2v4.8c0,4.1-1.1,7.2-3.2,9.4c-2.2,2.2-5.3,3.2-9.4,3.2h-22.5c-4.1,0-7.2-1.1-9.4-3.2
	c-2.1-2.2-3.2-5.3-3.2-9.4v-4.5c0-1.5,0.7-2.2,2.2-2.2h9.6c1.5,0,2.2,0.7,2.2,2.2V53c0,2,1,3,3,3h13.7c2,0,3-1,3-3L145.5,52.3
	L145.5,52.3z"/>
<path class="st0" d="M167,17.8c0-1.5,0.7-2.2,2.2-2.2h39.3c1.5,0,2.2,0.7,2.2,2.2v7.8c0,1.5-0.7,2.2-2.2,2.2h-27.4v7h20.8
	c1.5,0,2.2,0.7,2.2,2.2v7.8c0,1.5-0.7,2.2-2.2,2.2h-20.8v8.2h28.2c1.5,0,2.2,0.7,2.2,2.2v7.8c0,1.5-0.7,2.2-2.2,2.2h-40.1
	c-1.5,0-2.2-0.7-2.2-2.2V17.8z"/>
<path class="st0" d="M252.7,67.5c-0.9,0-1.6-0.2-2.1-0.6c-0.5-0.4-0.9-0.9-1.2-1.7l-17.1-26h-0.7v26c0,1.5-0.7,2.2-2.2,2.2h-9.6
	c-1.5,0-2.2-0.7-2.2-2.2V17.7c0-1.5,0.7-2.2,2.2-2.2h13.4c0.9,0,1.6,0.2,2.1,0.6s0.9,0.9,1.2,1.7l18.6,29.3h0.7l18.6-29.3
	c0.3-0.7,0.8-1.3,1.2-1.7c0.5-0.4,1.2-0.6,2.1-0.6h13.4c1.5,0,2.2,0.7,2.2,2.2v47.5c0,1.5-0.7,2.2-2.2,2.2h-9.6
	c-1.5,0-2.2-0.7-2.2-2.2v-26h-0.7l-17.1,26c-0.4,0.7-0.8,1.3-1.2,1.7c-0.5,0.4-1.2,0.6-2.1,0.6H252.7z"/>
<path class="st0" d="M345.1,31.8c0,1.5-0.3,2.7-0.8,3.7s-1.1,1.7-1.7,2.3c-0.7,0.6-1.5,1.1-2.4,1.5v0.7c1.4,0.3,2.7,0.9,3.9,1.8
	c1,0.7,1.9,1.7,2.7,2.9c0.8,1.2,1.2,2.9,1.2,5v5.2c0,4.1-1.1,7.2-3.2,9.4c-2.1,2.1-5.3,3.2-9.4,3.2h-32.6c-1.5,0-2.2-0.7-2.2-2.2
	V17.8c0-1.5,0.7-2.2,2.2-2.2h29.7c4.1,0,7.2,1.1,9.4,3.2c2.2,2.2,3.2,5.3,3.2,9.4V31.8z M314.7,27.7v7h13.4c2,0,3-1,3-3v-1.1
	c0-2-1-3-3-3L314.7,27.7L314.7,27.7z M314.7,46.2v8.9H331c2,0,3-1,3-3v-3c0-2-1-3-3-3L314.7,46.2L314.7,46.2z"/>
<path class="st0" d="M353.2,17.7c0-1.5,0.7-2.2,2.2-2.2H388c4.1,0,7.2,1.1,9.4,3.2c2.2,2.2,3.2,5.3,3.2,9.4v11.1
	c0,2.6-0.4,4.7-1.2,6.3c-0.8,1.6-1.7,2.8-2.7,3.6c-1.1,1-2.4,1.7-3.9,2l7.8,14.1c0.4,0.7,0.4,1.3,0.1,1.7s-0.7,0.6-1.3,0.6h-10.8
	c-0.9,0-1.6-0.2-2.1-0.6c-0.4-0.4-0.9-0.9-1.3-1.7l-7-13.4h-11.1v13.4c0,1.5-0.7,2.2-2.2,2.2h-9.6c-1.5,0-2.2-0.7-2.2-2.2V17.7
	H353.2z M367.3,27.7v11.9h16.4c2,0,3-1,3-3v-6c0-2-1-3-3-3L367.3,27.7L367.3,27.7z"/>
<path class="st0" d="M419.9,65.3c-0.6,1.5-1.6,2.2-3,2.2h-10.8c-0.5,0-0.9-0.2-1.2-0.6c-0.2-0.4-0.2-0.9,0.1-1.7l17.8-47.5
	c0.6-1.5,1.6-2.2,3-2.2h13.4c1.4,0,2.4,0.7,3,2.2L460,65.2c0.3,0.7,0.3,1.3,0.1,1.7c-0.2,0.4-0.6,0.6-1.2,0.6h-10.8
	c-1.4,0-2.4-0.7-3-2.2l-3-7.8h-19.3L419.9,65.3z M427.4,45.3h10.3l-4.8-13h-0.7L427.4,45.3z"/>
</svg>
